<?xml version="1.0" encoding="utf-8"?>
<!-- Generator: Adobe Illustrator 16.0.4, SVG Export Plug-In . SVG Version: 6.00 Build 0)  -->
<!DOCTYPE svg PUBLIC "-//W3C//DTD SVG 1.1//EN" "http://www.w3.org/Graphics/SVG/1.1/DTD/svg11.dtd">
<svg version="1.1" id="Слой_1" xmlns="http://www.w3.org/2000/svg" xmlns:xlink="http://www.w3.org/1999/xlink" x="0px" y="0px"
	 width="100px" height="100px" viewBox="0 0 100 100" enable-background="new 0 0 100 100" xml:space="preserve">
<polygon fill="#2D2D2D" points="343.295,139.887 313.307,109.898 313.307,67.488 343.295,37.5 385.705,37.5 415.693,67.488 
	415.693,109.898 385.705,139.887 "/>
<path fill="#06BFA0" d="M391.06,59.136l-67.892,26.278c-3.814,1.477-3.76,3.744,0.117,5.039l17.08,5.703L347,116.857
	c0.793,2.611,3.019,3.17,4.945,1.238l9.098-9.111c0.039-0.04,0.074-0.078,0.111-0.116l16.66,12.597
	c3.263,2.468,6.605,1.202,7.428-2.809l11.257-54.91C397.32,59.734,394.874,57.66,391.06,59.136z M380.031,73.826l-28.251,26.497
	l-0.001,0.001l-0.003,0.003c-0.496,0.467-0.905,1.364-0.963,2.044l0,0l-0.753,8.701c-0.379,4.328-1.061,2.822-1.893,0.223
	l-5.405-16.649l35.411-22.681C383.65,68.553,383.65,70.517,380.031,73.826z"/>
<g>
	<path fill="#2D2D2D" d="M452.55,70.746c2.94,2.5,4.41,6.34,4.41,11.52c0,5.181-1.511,8.97-4.53,11.37
		c-3.021,2.399-7.63,3.6-13.83,3.6h-5.58v11.7h-9.359V66.996h14.82C444.92,66.996,449.61,68.246,452.55,70.746z M445.68,87.246
		c1.119-1.261,1.68-3.1,1.68-5.521c0-2.42-0.729-4.14-2.189-5.16c-1.461-1.021-3.73-1.53-6.811-1.53h-5.34v14.101h6.301
		C442.439,89.136,444.56,88.506,445.68,87.246z"/>
	<path fill="#2D2D2D" d="M490.26,108.936h-8.46v-3.9c-2.32,2.921-5.189,4.381-8.609,4.381s-6.291-0.99-8.61-2.971
		c-2.32-1.98-3.48-4.619-3.48-7.92c0-3.3,1.2-5.77,3.601-7.41c2.399-1.639,5.68-2.459,9.84-2.459h6.72v-0.181
		c0-3.44-1.82-5.16-5.46-5.16c-1.56,0-3.21,0.311-4.95,0.931c-1.739,0.62-3.21,1.39-4.409,2.31l-4.021-5.82
		c4.239-3.079,9.08-4.62,14.521-4.62c3.919,0,7.119,0.98,9.6,2.94c2.479,1.96,3.72,5.061,3.72,9.3V108.936z M481.2,96.636v-1.56
		h-5.64c-3.601,0-5.4,1.119-5.4,3.359c0,1.16,0.43,2.051,1.29,2.67c0.859,0.621,2.09,0.93,3.689,0.93s3.01-0.488,4.23-1.47
		C480.59,99.586,481.2,98.276,481.2,96.636z"/>
	<path fill="#2D2D2D" d="M517.26,76.115c3.76,0,7.11,1.57,10.05,4.711c2.94,3.141,4.41,7.09,4.41,11.85s-1.47,8.74-4.41,11.939
		c-2.939,3.201-6.381,4.801-10.32,4.801s-7.109-1.58-9.51-4.74v15.9h-9v-43.92h9v3.6C510.239,77.496,513.499,76.115,517.26,76.115z
		 M507.359,92.826c0,2.619,0.729,4.76,2.19,6.42c1.46,1.66,3.229,2.489,5.31,2.489s3.9-0.829,5.46-2.489
		c1.561-1.66,2.341-3.79,2.341-6.391c0-2.6-0.761-4.779-2.28-6.54c-1.521-1.76-3.341-2.64-5.46-2.64c-2.121,0-3.91,0.869-5.37,2.609
		C508.089,88.025,507.359,90.206,507.359,92.826z"/>
	<path fill="#2D2D2D" d="M566.398,104.256c-3.64,3.44-7.91,5.16-12.81,5.16c-4.9,0-8.95-1.51-12.15-4.53s-4.8-7.069-4.8-12.15
		c0-5.079,1.63-9.12,4.89-12.12s7.11-4.5,11.551-4.5c4.439,0,8.209,1.341,11.31,4.021c3.1,2.681,4.65,6.36,4.65,11.04v4.8h-23.521
		c0.279,1.761,1.2,3.2,2.76,4.319c1.561,1.121,3.32,1.681,5.28,1.681c3.159,0,5.76-1.06,7.8-3.181L566.398,104.256z M557.759,85.115
		c-1.24-1.039-2.751-1.56-4.53-1.56c-1.78,0-3.41,0.54-4.89,1.62c-1.48,1.08-2.34,2.541-2.58,4.38h14.16
		C559.718,87.636,558.998,86.156,557.759,85.115z"/>
	<path fill="#2D2D2D" d="M592.499,84.576c-2.681,0-4.681,0.95-6,2.85c-1.32,1.9-1.98,4.41-1.98,7.529v13.98h-9V76.656h9v4.26
		c1.16-1.32,2.61-2.439,4.351-3.36c1.739-0.92,3.51-1.399,5.31-1.44l0.061,8.461H592.499z"/>
	<path fill="#06BFA0" d="M618.959,76.115c3.76,0,7.11,1.57,10.05,4.711c2.94,3.141,4.41,7.09,4.41,11.85s-1.47,8.74-4.41,11.939
		c-2.939,3.201-6.381,4.801-10.32,4.801s-7.109-1.58-9.51-4.74v15.9h-9v-43.92h9v3.6C611.938,77.496,615.198,76.115,618.959,76.115z
		 M609.059,92.826c0,2.619,0.729,4.76,2.19,6.42c1.46,1.66,3.229,2.489,5.31,2.489s3.9-0.829,5.46-2.489
		c1.561-1.66,2.341-3.79,2.341-6.391c0-2.6-0.761-4.779-2.28-6.54c-1.521-1.76-3.341-2.64-5.46-2.64c-2.121,0-3.91,0.869-5.37,2.609
		C609.788,88.025,609.059,90.206,609.059,92.826z"/>
	<path fill="#06BFA0" d="M649.138,108.936h-9v-44.52h9V108.936z"/>
	<path fill="#06BFA0" d="M685.077,108.936h-8.46v-3.9c-2.32,2.921-5.189,4.381-8.609,4.381s-6.291-0.99-8.61-2.971
		c-2.32-1.98-3.48-4.619-3.48-7.92c0-3.3,1.2-5.77,3.601-7.41c2.399-1.639,5.68-2.459,9.84-2.459h6.72v-0.181
		c0-3.44-1.82-5.16-5.46-5.16c-1.56,0-3.21,0.311-4.95,0.931c-1.739,0.62-3.21,1.39-4.409,2.31l-4.021-5.82
		c4.239-3.079,9.08-4.62,14.521-4.62c3.919,0,7.119,0.98,9.6,2.94c2.479,1.96,3.72,5.061,3.72,9.3V108.936z M676.018,96.636v-1.56
		h-5.64c-3.601,0-5.4,1.119-5.4,3.359c0,1.16,0.43,2.051,1.29,2.67c0.859,0.621,2.09,0.93,3.689,0.93s3.01-0.488,4.23-1.47
		C675.407,99.586,676.018,98.276,676.018,96.636z"/>
	<path fill="#06BFA0" d="M702.297,90.936v18h-9V76.656h9v3.6c2.72-2.76,5.78-4.141,9.181-4.141c3.399,0,6.249,1.2,8.55,3.6
		c2.3,2.4,3.45,5.602,3.45,9.601v19.62h-9v-18.24c0-4.959-1.821-7.439-5.46-7.439c-1.801,0-3.371,0.65-4.711,1.949
		C702.967,86.506,702.297,88.416,702.297,90.936z"/>
	<path fill="#06BFA0" d="M759.597,104.256c-3.64,3.44-7.91,5.16-12.81,5.16c-4.9,0-8.95-1.51-12.15-4.53s-4.8-7.069-4.8-12.15
		c0-5.079,1.63-9.12,4.89-12.12s7.11-4.5,11.551-4.5c4.439,0,8.209,1.341,11.31,4.021c3.1,2.681,4.65,6.36,4.65,11.04v4.8h-23.521
		c0.279,1.761,1.2,3.2,2.76,4.319c1.561,1.121,3.32,1.681,5.28,1.681c3.159,0,5.76-1.06,7.8-3.181L759.597,104.256z M750.957,85.115
		c-1.24-1.039-2.751-1.56-4.53-1.56c-1.78,0-3.41,0.54-4.89,1.62c-1.48,1.08-2.34,2.541-2.58,4.38h14.16
		C752.916,87.636,752.196,86.156,750.957,85.115z"/>
	<path fill="#06BFA0" d="M793.017,98.886c0,3.18-1.17,5.729-3.51,7.649s-5.31,2.881-8.91,2.881c-2.399,0-4.9-0.431-7.5-1.291
		c-2.601-0.859-4.94-2.129-7.02-3.81l3.96-5.64c3.36,2.601,6.939,3.9,10.74,3.9c1.159,0,2.079-0.23,2.76-0.69
		c0.68-0.46,1.02-1.069,1.02-1.83c0-0.759-0.471-1.46-1.409-2.101c-0.94-0.639-2.301-1.238-4.08-1.799
		c-1.78-0.561-3.141-1.041-4.08-1.441c-0.94-0.398-2.011-0.979-3.21-1.739c-2.44-1.52-3.66-3.77-3.66-6.75
		c0-2.979,1.2-5.409,3.6-7.29c2.4-1.88,5.5-2.82,9.3-2.82s7.6,1.281,11.4,3.84l-3.36,6c-2.8-1.92-5.59-2.879-8.369-2.879
		c-2.781,0-4.171,0.76-4.171,2.279c0,0.84,0.44,1.5,1.32,1.98c0.88,0.479,2.34,1.04,4.38,1.68c2.04,0.641,3.489,1.131,4.351,1.47
		c0.859,0.341,1.89,0.87,3.09,1.591C791.896,93.436,793.017,95.705,793.017,98.886z"/>
</g>
</svg>
